<svg width="1963" height="381" viewBox="0 0 1963 381" fill="none" xmlns="http://www.w3.org/2000/svg">
<g clip-path="url(#clip0)">
<path d="M454 16.0677C233.2 -37.5323 14.6667 55.7343 -67 109.068L-114 364.068L1331 393.068L1894 357.068V228.068C1889.67 203.068 1885.54 190.139 1852 177.068C1580 71.0676 1527 144.068 1217 203.068C902.296 262.963 730 83.0677 454 16.0677Z" fill="#00767D"/>
<path d="M523 37C302.2 -16.6 83.6667 76.6667 2 130L-45 385L1400 414L1963 378V249C1958.67 224 1954.54 211.072 1921 198C1649 92 1596 165 1286 224C971.296 283.895 799 104 523 37Z" fill="#60F1FB"/>
</g>
<defs>
<clipPath id="clip0">
<rect width="1963" height="381" fill="white"/>
</clipPath>
</defs>
</svg>
